<?xml version="1.0" encoding="UTF-8" standalone="no"?>
<svg
   xmlns:dc="http://purl.org/dc/elements/1.1/"
   xmlns:cc="http://creativecommons.org/ns#"
   xmlns:rdf="http://www.w3.org/1999/02/22-rdf-syntax-ns#"
   xmlns:svg="http://www.w3.org/2000/svg"
   xmlns="http://www.w3.org/2000/svg"
   viewBox="0 0 816 1056"
   height="1056"
   width="816"
   xml:space="preserve"
   id="svg2"
   version="1.1"><metadata
     id="metadata8"><rdf:RDF><cc:Work
         rdf:about=""><dc:format>image/svg+xml</dc:format><dc:type
           rdf:resource="http://purl.org/dc/dcmitype/StillImage" /></cc:Work></rdf:RDF></metadata><defs
     id="defs6"><clipPath
       id="clipPath20"
       clipPathUnits="userSpaceOnUse"><path
         id="path18"
         d="M -2,-2 H 696 V 789 H -2 Z" /></clipPath></defs><g
     transform="matrix(1.3333333,0,0,-1.3333333,0,1056)"
     id="g10"><g
       transform="matrix(1,0,0,-1,0,792)"
       id="g12"><g
         transform="matrix(0.73659941,0,0,0.73659941,50.400003,54)"
         id="g14"><g
           clip-path="url(#clipPath20)"
           id="g16"><path
             id="path22"
             style="fill:#ffffff;fill-opacity:1;fill-rule:nonzero;stroke:none"
             d="M 0,0 H 695 V 788 H 0 Z" /><path
             id="path24"
             style="fill:none;stroke:#000000;stroke-width:1;stroke-linecap:butt;stroke-linejoin:miter;stroke-miterlimit:10;stroke-dasharray:none;stroke-opacity:1"
             d="M -1,71.5 H 695" /><text
             id="text28"
             style="font-variant:normal;font-weight:bold;font-size:46.79999924px;font-family:Arial;-inkscape-font-specification:Arial-BoldMT;writing-mode:lr-tb;fill:#000000;fill-opacity:1;fill-rule:nonzero;stroke:none"
             transform="translate(3,43.89492)"><tspan
               id="tspan26"
               y="0"
               x="0 33.7896 59.810398 88.358398 101.322 127.3428 140.3064 153.27 181.81799 210.366 238.914 257.1192">Daniel Thorn</tspan></text>
<text
             id="text32"
             style="font-variant:normal;font-weight:normal;font-size:13px;font-family:Arial;-inkscape-font-specification:ArialMT;writing-mode:lr-tb;fill:#000000;fill-opacity:1;fill-rule:nonzero;stroke:none"
             transform="translate(388,12.193848)"><tspan
               id="tspan30"
               y="0"
               x="0 7.2280002 14.456 21.684 28.912001 32.513 41.898998 49.126999 56.355 62.855 65.740997 72.969002 76.57 85.956001 90.285004 93.170998 99.670998 106.899">6445 Rankin Drive </tspan></text>
<text
             id="text36"
             style="font-variant:normal;font-weight:normal;font-size:13px;font-family:Arial;-inkscape-font-specification:ArialMT;writing-mode:lr-tb;fill:#000000;fill-opacity:1;fill-rule:nonzero;stroke:none"
             transform="translate(388,27.142578)"><tspan
               id="tspan34"
               y="0"
               x="0 8.658 15.886 23.114 29.614 36.841999 44.07 50.57 57.798 62.126999 65.727997 69.329002 81.587997 90.246002 93.847 101.075 108.303 115.531 122.759">Vancouver, WA 98665</tspan></text>
<text
             id="text40"
             style="font-variant:normal;font-weight:normal;font-size:13px;font-family:Arial;-inkscape-font-specification:ArialMT;writing-mode:lr-tb;fill:#000000;fill-opacity:1;fill-rule:nonzero;stroke:none"
             transform="translate(606.4302,12.193848)"><tspan
               id="tspan38"
               y="0"
               x="0 7.2280002 14.456 21.684 26.013 33.241001 40.469002 47.696999 52.026001 59.254002 66.482002 73.709999 80.938004">541-908-1820 </tspan></text>
<text
             id="text44"
             style="font-variant:normal;font-weight:normal;font-size:13px;font-family:Arial;-inkscape-font-specification:ArialMT;writing-mode:lr-tb;fill:#000000;fill-opacity:1;fill-rule:nonzero;stroke:none"
             transform="translate(582.417,27.142578)"><tspan
               id="tspan42"
               y="0"
               x="0 7.2280002 14.456 21.684 24.57 31.798 34.683998 47.879002 52.208 59.436001 62.321999 69.550003 76.778 80.378998 86.878998 94.107002 104.936">daniel@relud.com </tspan></text>
<text
             id="text48"
             style="font-variant:normal;font-weight:normal;font-size:13px;font-family:Arial;-inkscape-font-specification:ArialMT;writing-mode:lr-tb;fill:#000000;fill-opacity:1;fill-rule:nonzero;stroke:none"
             transform="translate(604.98926,42.09131)"><tspan
               id="tspan46"
               y="0"
               x="0 4.329 11.557 14.443 21.671 28.899 32.5 39.728001 46.956001 50.556999 57.785 60.671001 64.272003 71.5 78.727997">relud on github</tspan></text>
<text
             id="text52"
             style="font-variant:normal;font-weight:bold;font-size:18.19999886px;font-family:Arial;-inkscape-font-specification:Arial-BoldMT;writing-mode:lr-tb;fill:#000000;fill-opacity:1;fill-rule:nonzero;stroke:none"
             transform="translate(3,106.05966)"><tspan
               id="tspan50"
               y="0"
               x="0 12.1212 22.240398 33.3424 43.461597 50.541397 55.582798 65.701996 76.803993 86.923195">Experience</tspan></text>
<text
             id="text56"
             style="font-variant:normal;font-weight:normal;font-size:13px;font-family:Arial;-inkscape-font-specification:ArialMT;writing-mode:lr-tb;fill:#000000;fill-opacity:1;fill-rule:nonzero;stroke:none"
             transform="translate(117,101.19385)"><tspan
               id="tspan54"
               y="0"
               x="0 6.5 13.728 20.955999 24.556999 31.785 39.013 46.241001 53.469002 57.07 61.398998 65 73.657997 77.987 85.214996 91.714996 98.943001 106.171">Jan 2015 - Present</tspan></text>
<text
             id="text60"
             style="font-variant:normal;font-weight:normal;font-size:13px;font-family:Arial;-inkscape-font-specification:ArialMT;writing-mode:lr-tb;fill:#000000;fill-opacity:1;fill-rule:nonzero;stroke:none"
             transform="translate(262,101.19385)"><tspan
               id="tspan58"
               y="0"
               x="0 10.829 18.056999 24.556999 27.443001 30.329 33.215 40.443001 44.043999 53.43 60.658001 64.987 72.214996 79.443001 83.772003 91 94.600998 97.487 104.715">Mozilla Corporation</tspan></text>
<text
             id="text64"
             style="font-variant:normal;font-weight:normal;font-size:13px;font-family:Arial;-inkscape-font-specification:ArialMT;writing-mode:lr-tb;fill:#000000;fill-opacity:1;fill-rule:nonzero;stroke:none"
             transform="translate(600.68555,101.19385)"><tspan
               id="tspan62"
               y="0"
               x="0 8.658 15.886 23.114 29.614 36.841999 44.07 50.57 57.798 62.126999 65.727997 69.329002 81.587997">Vancouver, WA</tspan></text>
<text
             id="text68"
             style="font-variant:normal;font-weight:bold;font-size:13px;font-family:Arial;-inkscape-font-specification:Arial-BoldMT;writing-mode:lr-tb;fill:#000000;fill-opacity:1;fill-rule:nonzero;stroke:none"
             transform="translate(117,123.19385)"><tspan
               id="tspan66"
               y="0"
               x="0 8.658 15.886 23.816 27.417 35.347 40.403999 44.005001 53.390999 60.618999 64.947998 72.176003 75.777 84.434998 92.364998 100.295 103.896 111.826 119.054 126.282">Senior Data Engineer</tspan></text>
<text
             id="text72"
             style="font-variant:normal;font-weight:normal;font-size:13px;font-family:Arial;-inkscape-font-specification:ArialMT;writing-mode:lr-tb;fill:#000000;fill-opacity:1;fill-rule:nonzero;stroke:none"
             transform="translate(117,140.19385)"><tspan
               id="tspan70"
               y="0"
               x="0">●</tspan></text>
<text
             id="text76"
             style="font-variant:normal;font-weight:normal;font-size:13px;font-family:Arial;-inkscape-font-specification:ArialMT;writing-mode:lr-tb;fill:#000000;fill-opacity:1;fill-rule:nonzero;stroke:none"
             transform="translate(131,140.19385)"><tspan
               id="tspan74"
               y="0"
               x="0 9.3859997 16.614 20.943001 25.271999 32.5 39.728001 43.328999 46.215 52.715 56.316002 67.144997 74.373001 77.259003 84.487 88.087997 95.316002 98.202003 105.43 108.316 115.544 122.772 126.373 133.601 137.202 144.42999 151.658 155.259 162.487 166.088 173.31599 176.202 183.42999 190.658 193.54401 196.42999 203.658 210.886 214.487 217.373 224.601 228.202 236.86 249.119 257.77701 261.37799 268.60599 275.83401 278.72 281.60599 285.207 288.80801 296.03601 303.26401 306.86499 315.52301 322.75101 326.35199 332.85199 340.07999 343.681 347.28201 355.94 366.76901 376.155 379.75601 388.414 395.642 402.87 407.19901 413.69901 417.29999 420.901 429.55899 436.78699 440.388 443.98901 451.21701 458.44501 465.673 469.27399 477.93201 481.53299 488.76099 495.98901 503.21701">Currently maintaining a data pipeline in AWS built on Kafka, EMR Spark, S3, and Athena</tspan></text>
<text
             id="text80"
             style="font-variant:normal;font-weight:normal;font-size:13px;font-family:Arial;-inkscape-font-specification:ArialMT;writing-mode:lr-tb;fill:#000000;fill-opacity:1;fill-rule:nonzero;stroke:none"
             transform="translate(117,157.19385)"><tspan
               id="tspan78"
               y="0"
               x="0">●</tspan></text>
<text
             id="text84"
             style="font-variant:normal;font-weight:normal;font-size:13px;font-family:Arial;-inkscape-font-specification:ArialMT;writing-mode:lr-tb;fill:#000000;fill-opacity:1;fill-rule:nonzero;stroke:none"
             transform="translate(131,157.19385)"><tspan
               id="tspan82"
               y="0"
               x="0 9.3859997 16.614 23.114 26 33.228001 40.456001 47.683998 54.911999 58.513 62.113998 65 75.829002 83.056999 85.943001 93.170998 104 111.228 118.456 122.057 129.285 136.513 140.114 143.715 150.94299 158.17101 165.399 169 175.5 182.728 187.05701 191.386 198.614 205.842 209.44299 212.32899 218.82899 222.42999 226.03101 233.259 239.759 243.36 246.246 253.474 260.702 264.30301 271.53101 275.13199 282.35999 289.58801 293.189 300.41699 304.01801 311.246 314.13199 321.35999 328.58801 331.474 334.35999 341.58801 348.81601 352.41699 356.01801 363.246 367.57501 371.17599 374.06201 381.29001 388.51801 395.746 402.246 405.84698 408.733 415.961 423.189 426.79001 434.01801 441.246 448.474 455.702 460.03101 467.259 474.487 480.987 484.58801 491.81601 495.41699 499.01801 502.61899 509.84698 514.17603 521.40399 528.63202 535.13202 538.73297 545.961 552.461">Designed, implemented, and currently testing a data pipeline for ingesting hundreds of terabytes </tspan></text>
<text
             id="text88"
             style="font-variant:normal;font-weight:normal;font-size:13px;font-family:Arial;-inkscape-font-specification:ArialMT;writing-mode:lr-tb;fill:#000000;fill-opacity:1;fill-rule:nonzero;stroke:none"
             transform="translate(131,172.14258)"><tspan
               id="tspan86"
               y="0"
               x="0 7.2280002 14.456 18.785 22.386 29.614 36.841999 43.341999 46.943001 54.171001 57.771999 61.373001 67.873001 70.759003 73.644997 80.873001 88.100998 91.702003 95.303001 102.531 109.759 113.36 120.588 124.189 127.075 134.30299 137.90401 148.005 157.39101 166.049 169.64999 176.87801 183.37801 186.26401 193.492 200.72 204.321 212.979 220.207 227.435 234.66299 238.992 246.22 253.448 257.04901 264.27701 270.77701 274.37799 277.979 286.63699 293.86499 301.09299 309.75101 316.979 324.207 327.80801 331.409 340.79501 348.02301 351.62399 358.85199 362.453 365.33899 372.56699 381.953 385.55399 389.155 396.383 403.61099 410.83899 414.44 423.09799 425.98401 433.21201 443.31299 450.54099 457.76901 462.09799">per day of client data in GCP using Kubernetes, PubSub, Dataflow, and BigQuery</tspan></text>
<text
             id="text92"
             style="font-variant:normal;font-weight:normal;font-size:13px;font-family:Arial;-inkscape-font-specification:ArialMT;writing-mode:lr-tb;fill:#000000;fill-opacity:1;fill-rule:nonzero;stroke:none"
             transform="translate(117,188.19385)"><tspan
               id="tspan90"
               y="0"
               x="0">●</tspan></text>
<text
             id="text96"
             style="font-variant:normal;font-weight:normal;font-size:13px;font-family:Arial;-inkscape-font-specification:ArialMT;writing-mode:lr-tb;fill:#000000;fill-opacity:1;fill-rule:nonzero;stroke:none"
             transform="translate(131,188.19385)"><tspan
               id="tspan94"
               y="0"
               x="0 9.3859997 16.614 23.114 26 33.228001 40.456001 47.683998 54.911999 58.513 62.113998 65 75.829002 83.056999 85.943001 93.170998 104 111.228 118.456 122.057 129.285 136.513 140.114 143.715 150.94299 158.17101 165.399 169 179.82899 187.05701 189.94299 197.17101 200.772 208 210.886 218.114 225.342 232.57001 236.17101 243.399 250.627 254.228 261.45599 268.68399 272.285 279.513 286.013 292.513 299.741 302.62701 305.513 312.741 319.96899 323.57001 330.798 338.026 341.62701 348.85501 352.45599 359.68399 362.57001 369.798 377.026 379.91199 382.798 390.026 397.254 400.85501 404.45599 411.68399 416.013 419.61401 423.215 430.44299 434.772 442 449.228 455.728 459.32901 466.55701 473.05701 476.65799 483.88599 491.11401 495.44299 499.04401 506.272 513.5 520 523.60101 530.82898 534.42999">Designed, implemented, and maintained an autoscaling data pipeline for terabytes per day of </tspan></text>
<text
             id="text100"
             style="font-variant:normal;font-weight:normal;font-size:13px;font-family:Arial;-inkscape-font-specification:ArialMT;writing-mode:lr-tb;fill:#000000;fill-opacity:1;fill-rule:nonzero;stroke:none"
             transform="translate(131,203.14258)"><tspan
               id="tspan98"
               y="0"
               x="0 6.5 13.728 18.056999 24.556999 31.785 36.113998 39.715 42.601002 49.828999 57.056999 63.556999 67.157997 70.043999 77.272003 80.873001 89.530998 101.79 110.448 114.049 121.277 127.777 130.66299 137.89101 145.119 148.72 157.37801 160.26401 167.492 174.72 181.22 184.106 190.606 194.207 197.808 205.036 212.26401 223.093 230.321 237.549 244.77699 248.37801 251.979 260.63699 267.86499 271.466 275.06699 283.72501 287.32599 294.55399 301.78201 309.01001 316.23801 319.83899 323.44 332.09799 334.98401 342.21201 348.71201 352.31299 355.19901 361.69901 370.35699 377.58499 384.81299 389.142 395.642 402.87 406.47101 410.07199 419.45801 426.686 433.914 440.414 447.642 450.52802 454.129 457.73001 461.33099 468.55899 475.78699 483.01501 486.616 496.71701 503.94501 506.83099 513.33099 519.83099 526.33099 529.21698 536.44501 543.67297">server logs in AWS using Kinesis, Lambda, S3, Athena, ElasticSearch, Redshift and Quicksight</tspan></text>
<text
             id="text104"
             style="font-variant:normal;font-weight:normal;font-size:13px;font-family:Arial;-inkscape-font-specification:ArialMT;writing-mode:lr-tb;fill:#000000;fill-opacity:1;fill-rule:nonzero;stroke:none"
             transform="translate(117,219.19385)"><tspan
               id="tspan102"
               y="0"
               x="0">●</tspan></text>
<text
             id="text108"
             style="font-variant:normal;font-weight:normal;font-size:13px;font-family:Arial;-inkscape-font-specification:ArialMT;writing-mode:lr-tb;fill:#000000;fill-opacity:1;fill-rule:nonzero;stroke:none"
             transform="translate(131,219.19385)"><tspan
               id="tspan106"
               y="0"
               x="0 9.3859997 16.614 19.5 26.728001 33.956001 41.183998 44.785 52.013 59.241001 62.126999 65.013 72.240997 75.842003 83.07 90.297997 97.526001 101.127 111.956 119.184 122.07 129.298 132.899 140.127 143.013 150.241 153.842 161.07001 164.67101 171.899 179.127 182.728 189.95599 193.55701 200.785 203.67101 210.899 218.127 221.013 223.899 231.127 238.355 241.95599 244.842 252.07001 255.67101 264.32901 276.58801 285.246 288.84698 296.07501 302.57501 305.461 312.689 319.91699 323.51801 332.17599 339.40399 343.005 346.60599 355.26401 364.64999 373.30801 376.909 380.51001 389.168 399.26901 407.927 411.52802 415.129 424.51501 427.401 433.901 440.401 447.629 451.23001 462.05899 469.28699 476.51501 480.84399 485.173 492.401 499.629 506.85699 513.35699 520.58502 524.18597 527.78699 535.01501 542.24298 549.47101">Helped build and maintain a data pipeline in AWS using S3, SNS, SQS, Disco map-reduce, and </tspan></text>
<text
             id="text112"
             style="font-variant:normal;font-weight:normal;font-size:13px;font-family:Arial;-inkscape-font-specification:ArialMT;writing-mode:lr-tb;fill:#000000;fill-opacity:1;fill-rule:nonzero;stroke:none"
             transform="translate(131,234.14258)"><tspan
               id="tspan110"
               y="0"
               x="0 9.3859997 16.614 23.841999 30.341999 37.57 40.456001 44.056999">Redshift</tspan></text>
<text
             id="text116"
             style="font-variant:normal;font-weight:normal;font-size:13px;font-family:Arial;-inkscape-font-specification:ArialMT;writing-mode:lr-tb;fill:#000000;fill-opacity:1;fill-rule:nonzero;stroke:none"
             transform="translate(117,267.19385)"><tspan
               id="tspan114"
               y="0"
               x="0 6.5 13.728 20.955999 24.556999 31.785 39.013 46.241001 53.469002 57.07 61.398998 65 74.386002 81.613998 88.113998 91.714996 98.943001 106.171 113.399">Jan 2013 - Dec 2014</tspan></text>
<text
             id="text120"
             style="font-variant:normal;font-weight:normal;font-size:13px;font-family:Arial;-inkscape-font-specification:ArialMT;writing-mode:lr-tb;fill:#000000;fill-opacity:1;fill-rule:nonzero;stroke:none"
             transform="translate(262,267.19385)"><tspan
               id="tspan118"
               y="0"
               x="0 10.829 18.056999 24.556999 27.443001 30.329 33.215 40.443001 44.043999 53.43 60.658001 64.987 72.214996 79.443001 83.772003 91 94.600998 97.487 104.715">Mozilla Corporation</tspan></text>
<text
             id="text124"
             style="font-variant:normal;font-weight:normal;font-size:13px;font-family:Arial;-inkscape-font-specification:ArialMT;writing-mode:lr-tb;fill:#000000;fill-opacity:1;fill-rule:nonzero;stroke:none"
             transform="translate(615.85645,267.19385)"><tspan
               id="tspan122"
               y="0"
               x="0 8.658 15.886 20.215 23.816 26.702 33.93 41.158001 48.386002 51.987 55.588001 65.689003">Portland, OR</tspan></text>
<text
             id="text128"
             style="font-variant:normal;font-weight:bold;font-size:13px;font-family:Arial;-inkscape-font-specification:Arial-BoldMT;writing-mode:lr-tb;fill:#000000;fill-opacity:1;fill-rule:nonzero;stroke:none"
             transform="translate(117,284.19385)"><tspan
               id="tspan126"
               y="0"
               x="0 10.101 18.031 25.259001 30.316 37.543999 41.873001 45.473999 53.403999 61.334 68.561996 72.163002 80.820999 88.750999 96.681 100.282 108.212 115.44 122.668">Operations Engineer</tspan></text>
<text
             id="text132"
             style="font-variant:normal;font-weight:normal;font-size:13px;font-family:Arial;-inkscape-font-specification:ArialMT;writing-mode:lr-tb;fill:#000000;fill-opacity:1;fill-rule:nonzero;stroke:none"
             transform="translate(117,301.19385)"><tspan
               id="tspan130"
               y="0"
               x="0">●</tspan></text>
<text
             id="text136"
             style="font-variant:normal;font-weight:normal;font-size:13px;font-family:Arial;-inkscape-font-specification:ArialMT;writing-mode:lr-tb;fill:#000000;fill-opacity:1;fill-rule:nonzero;stroke:none"
             transform="translate(131,301.19385)"><tspan
               id="tspan134"
               y="0"
               x="0 9.3859997 16.614 23.841999 26.728001 33.956001 40.456001 47.683998 54.911999 58.513 62.113998 65.714996 72.943001 79.443001 83.043999 90.272003 97.5 101.101 104.702 111.93 119.158 126.386 129.987 136.487 142.987 150.215 153.101 160.32899 167.55701 171.158 178.386 184.886 188.487 195.715 202.94299 210.17101 213.772 221 228.228 235.45599 239.05701 246.285 253.513 260.741 267.96899 270.85501 277.35501 280.95599 287.45599 294.68399 299.013 305.513 308.39899 314.89899 322.12701 328.62701 332.228 339.45599 346.68399 350.285 358.94299 371.202 379.85999 383.461 392.84698 395.733 399.33401 406.56201 410.16299 419.54901 426.77701 434.005 437.60599 447.707 456.36499 459.966 463.56699 472.953 481.61099 492.44 498.94 502.54099 506.142 515.52802 522.75598 529.25598 535.75598 542.98401 547.31299 550.914">Deployed, tested, and scaled python and nodejs services on AWS with CentOS, RPMs, Docker, </tspan></text>
<text
             id="text140"
             style="font-variant:normal;font-weight:normal;font-size:13px;font-family:Arial;-inkscape-font-specification:ArialMT;writing-mode:lr-tb;fill:#000000;fill-opacity:1;fill-rule:nonzero;stroke:none"
             transform="translate(131,316.14258)"><tspan
               id="tspan138"
               y="0"
               x="0 7.2280002 14.456 21.684 25.285 33.943001 41.171001 48.398998 55.626999 62.855">and Puppet</tspan></text>
<text
             id="text144"
             style="font-variant:normal;font-weight:normal;font-size:13px;font-family:Arial;-inkscape-font-specification:ArialMT;writing-mode:lr-tb;fill:#000000;fill-opacity:1;fill-rule:nonzero;stroke:none"
             transform="translate(117,332.19385)"><tspan
               id="tspan142"
               y="0"
               x="0">●</tspan></text>
<text
             id="text148"
             style="font-variant:normal;font-weight:normal;font-size:13px;font-family:Arial;-inkscape-font-specification:ArialMT;writing-mode:lr-tb;fill:#000000;fill-opacity:1;fill-rule:nonzero;stroke:none"
             transform="translate(131,332.19385)"><tspan
               id="tspan146"
               y="0"
               x="0 9.3859997 16.614 23.114 26 33.228001 40.456001 47.683998 54.911999 58.513 61.398998 68.626999 75.855003 83.083 86.683998 90.285004 97.513 104.013 107.614 114.114 117.715 124.943 132.17101 139.399 143 145.886 153.114 156.715 163.94299 171.17101 175.5 182.728 186.32899 189.215 196.44299 203.67101 207.272 210.873 218.101 224.601 228.202 234.702 238.30299 241.90401 249.132 253.461 257.06201 264.29001 271.51801 278.01801 285.246 288.13199 295.35999 302.58801 309.81601 314.14499 317.746 324.974 329.30301 336.53101 343.03101 345.91699 353.14499 360.37299 367.60101 371.202 377.702 384.92999 388.53101 392.13199 401.51801 408.746 413.07501">Designed load tests and integration tests for developer provided software</tspan></text>
<text
             id="text152"
             style="font-variant:normal;font-weight:normal;font-size:13px;font-family:Arial;-inkscape-font-specification:ArialMT;writing-mode:lr-tb;fill:#000000;fill-opacity:1;fill-rule:nonzero;stroke:none"
             transform="translate(117,349.19385)"><tspan
               id="tspan150"
               y="0"
               x="0">●</tspan></text>
<text
             id="text156"
             style="font-variant:normal;font-weight:normal;font-size:13px;font-family:Arial;-inkscape-font-specification:ArialMT;writing-mode:lr-tb;fill:#000000;fill-opacity:1;fill-rule:nonzero;stroke:none"
             transform="translate(131,349.19385)"><tspan
               id="tspan154"
               y="0"
               x="0 9.3859997 16.614 23.114 26 33.228001 40.456001 47.683998 54.911999 58.513 69.342003 76.57 83.07 86.670998 93.899002 98.227997 101.114 108.342 114.842 121.342 124.943 133.601 140.82899 148.05701 155.285 162.513 166.114 169.715 172.601 179.82899 183.42999 187.759 194.987 201.487 205.088 209.41701 216.645 223.145 226.746 233.974 238.30299 245.53101 249.132 256.35999 263.58801 267.189 275.84698 288.10599">Designed masterless Puppet infrastructure on AWS</tspan></text>
<text
             id="text160"
             style="font-variant:normal;font-weight:normal;font-size:13px;font-family:Arial;-inkscape-font-specification:ArialMT;writing-mode:lr-tb;fill:#000000;fill-opacity:1;fill-rule:nonzero;stroke:none"
             transform="translate(117,383.19385)"><tspan
               id="tspan158"
               y="0"
               x="0 9.3859997 16.614 23.114 26.715 33.943001 41.171001 48.398998 55.626999 59.228001 63.556999 67.157997 76.543999 83.772003 90.272003 93.873001 101.101 108.329 115.557">Nov 2010 - Dec 2012</tspan></text>
<text
             id="text164"
             style="font-variant:normal;font-weight:normal;font-size:13px;font-family:Arial;-inkscape-font-specification:ArialMT;writing-mode:lr-tb;fill:#000000;fill-opacity:1;fill-rule:nonzero;stroke:none"
             transform="translate(262,383.19385)"><tspan
               id="tspan162"
               y="0"
               x="0 10.101 18.759001 28.145 31.746 41.847 49.075001 56.303001 63.530998 67.132004 75.790001 83.017998 90.246002 94.574997 101.075 108.303 111.904 119.132 126.36 133.588">OSU Open Source Labs</tspan></text>
<text
             id="text168"
             style="font-variant:normal;font-weight:normal;font-size:13px;font-family:Arial;-inkscape-font-specification:ArialMT;writing-mode:lr-tb;fill:#000000;fill-opacity:1;fill-rule:nonzero;stroke:none"
             transform="translate(614.4346,383.19385)"><tspan
               id="tspan166"
               y="0"
               x="0 9.3859997 16.614 20.943001 27.443001 34.671001 37.556999 40.443001 43.328999 49.828999 53.43 57.030998 67.132004">Corvallis, OR</tspan></text>
<text
             id="text172"
             style="font-variant:normal;font-weight:bold;font-size:13px;font-family:Arial;-inkscape-font-specification:Arial-BoldMT;writing-mode:lr-tb;fill:#000000;fill-opacity:1;fill-rule:nonzero;stroke:none"
             transform="translate(117,400.19385)"><tspan
               id="tspan170"
               y="0"
               x="0 9.3859997 17.316 28.872999 40.43 48.360001 56.290001 59.890999 64.220001 71.447998 75.049004 83.707001 90.934998 98.163002 102.492 109.72 121.277 128.505 132.106 141.492 149.422 160.979 164.58 172.50999 176.11099 183.339 187.668 192.72501 199.953 204.282 212.21201">Community Systems Administrator</tspan></text>
<text
             id="text176"
             style="font-variant:normal;font-weight:normal;font-size:13px;font-family:Arial;-inkscape-font-specification:ArialMT;writing-mode:lr-tb;fill:#000000;fill-opacity:1;fill-rule:nonzero;stroke:none"
             transform="translate(117,417.19385)"><tspan
               id="tspan174"
               y="0"
               x="0">●</tspan></text>
<text
             id="text180"
             style="font-variant:normal;font-weight:normal;font-size:13px;font-family:Arial;-inkscape-font-specification:ArialMT;writing-mode:lr-tb;fill:#000000;fill-opacity:1;fill-rule:nonzero;stroke:none"
             transform="translate(131,417.19385)"><tspan
               id="tspan178"
               y="0"
               x="0 8.658 15.158 21.658001 24.544001 31.044001 34.645 41.873001 49.101002 52.702 55.588001 62.816002 66.417 77.246002 80.132004 87.360001 91.689003 98.917 102.518 105.404 112.632 119.86 123.461 127.062 131.39101 138.619 149.448 153.049 162.435 170.36501 179.02299 186.25101 193.479 196.36501 203.593 210.821 214.422 218.02299 225.25101 228.85201 237.50999 244.73801 251.966 259.194 266.422">Assisted in migrating from CFEngine to Puppet</tspan></text>
<text
             id="text184"
             style="font-variant:normal;font-weight:normal;font-size:13px;font-family:Arial;-inkscape-font-specification:ArialMT;writing-mode:lr-tb;fill:#000000;fill-opacity:1;fill-rule:nonzero;stroke:none"
             transform="translate(117,433.19385)"><tspan
               id="tspan182"
               y="0"
               x="0">●</tspan></text>
<text
             id="text188"
             style="font-variant:normal;font-weight:normal;font-size:13px;font-family:Arial;-inkscape-font-specification:ArialMT;writing-mode:lr-tb;fill:#000000;fill-opacity:1;fill-rule:nonzero;stroke:none"
             transform="translate(131,433.19385)"><tspan
               id="tspan186"
               y="0"
               x="0 8.658 15.158 22.386 29.614 33.943001 36.828999 44.056999 51.285 57.785 65.013 68.613998 78 85.227997 89.556999 96.056999 98.943001 106.171 113.399 117 126.386 129.272 132.873 140.101 143.702 150.92999 158.158 165.386 168.987 176.215 183.44299 194.272 197.158 204.386 207.272 213.772 217.373 221.702 228.92999 232.53101 235.41701 242.645 249.873 253.474 262.13199 269.35999 276.58801 283.81601 291.04401 294.64499 298.246 301.84698 311.233 318.461 325.689 336.51801 339.40399 346.63199 353.85999 357.461 361.06201 370.448 378.37799 387.03601 394.26401 401.492 404.37799 411.60599 418.83401 422.435 426.03601 433.26401 440.492 447.72 451.32101 457.82101 465.04901 475.87799 483.10599 486.707 494.63699 502.56699 511.22501">Experience working with and administrating Puppet, Redmine, CFEngine, and some FTP </tspan></text>
<text
             id="text192"
             style="font-variant:normal;font-weight:normal;font-size:13px;font-family:Arial;-inkscape-font-specification:ArialMT;writing-mode:lr-tb;fill:#000000;fill-opacity:1;fill-rule:nonzero;stroke:none"
             transform="translate(131,448.14258)"><tspan
               id="tspan190"
               y="0"
               x="0 10.829 13.715 18.044001 22.372999 29.601 33.93 36.816002 44.043999 51.271999 54.873001 58.473999 67.132004 79.390999 88.049004 91.650002 98.877998 102.479 108.979 112.58 116.181 123.409 132.795 141.453 150.11099 153.71201 157.313 164.541 171.769 178.99699 182.59801 191.98399 199.21201 206.44 209.326 216.554">mirroring, AWStats, LDAP, and Nagios</tspan></text>
<text
             id="text196"
             style="font-variant:normal;font-weight:normal;font-size:13px;font-family:Arial;-inkscape-font-specification:ArialMT;writing-mode:lr-tb;fill:#000000;fill-opacity:1;fill-rule:nonzero;stroke:none"
             transform="translate(117,464.19385)"><tspan
               id="tspan194"
               y="0"
               x="0">●</tspan></text>
<text
             id="text200"
             style="font-variant:normal;font-weight:normal;font-size:13px;font-family:Arial;-inkscape-font-specification:ArialMT;writing-mode:lr-tb;fill:#000000;fill-opacity:1;fill-rule:nonzero;stroke:none"
             transform="translate(131,464.19385)"><tspan
               id="tspan198"
               y="0"
               x="0 10.101 17.329 24.556999 31.785 36.113998 43.341999 46.228001 49.828999 52.715 55.601002 62.828999 70.056999 76.556999 80.157997 86.657997 93.157997 99.657997 103.259 110.487 121.316 127.816 131.41701 138.645 145.873 156.702 159.588 166.81599 169.702 176.202 179.80299 184.132 191.36 194.961 197.847 205.075 212.30299 215.90401 220.233 223.834 226.72 233.22 236.821 240.422 247.64999 250.536 257.03601 260.63699 267.13699 274.36499 278.694 285.194 292.422 296.75101 300.35199 303.953 311.181 318.409 325.63699 328.52301 335.75101 342.25101 345.85199 349.453 356.681 363.909 367.51001 371.11099 377.61099 384.83899 388.44 392.04099 401.427 408.655 412.98401 420.21201 423.81299 431.04099 435.37 442.59799 445.48401 452.71201 459.21201 462.81299 466.414 470.01501 477.24301 480.84399 487.34399">General linux systems administration (fix this server, deploy that software project, etc)</tspan></text>
<text
             id="text204"
             style="font-variant:normal;font-weight:normal;font-size:13px;font-family:Arial;-inkscape-font-specification:ArialMT;writing-mode:lr-tb;fill:#000000;fill-opacity:1;fill-rule:nonzero;stroke:none"
             transform="translate(117,498.19385)"><tspan
               id="tspan202"
               y="0"
               x="0 10.829 18.056999 24.556999 28.158001 35.386002 42.613998 49.841999 57.07 60.671001 65 68.600998 77.259003 84.487 91.714996 95.316002 98.917 106.145 113.373 120.601">May 2011 - Sept 2011</tspan></text>
<text
             id="text208"
             style="font-variant:normal;font-weight:normal;font-size:13px;font-family:Arial;-inkscape-font-specification:ArialMT;writing-mode:lr-tb;fill:#000000;fill-opacity:1;fill-rule:nonzero;stroke:none"
             transform="translate(262,498.19385)"><tspan
               id="tspan206"
               y="0"
               x="0 9.3859997 16.614 23.114 30.341999 33.228001 36.113998 43.341999 49.841999 53.443001 62.101002 68.600998 75.100998 78.702003 85.93 96.759003">Novellus Systems</tspan></text>
<text
             id="text212"
             style="font-variant:normal;font-weight:normal;font-size:13px;font-family:Arial;-inkscape-font-specification:ArialMT;writing-mode:lr-tb;fill:#000000;fill-opacity:1;fill-rule:nonzero;stroke:none"
             transform="translate(618.02734,498.19385)"><tspan
               id="tspan210"
               y="0"
               x="0 7.9299998 15.158 22.386 25.271999 32.5 36.101002 38.987 46.215 49.816002 53.417 63.518002">Tualatin, OR</tspan></text>
<text
             id="text216"
             style="font-variant:normal;font-weight:bold;font-size:13px;font-family:Arial;-inkscape-font-specification:Arial-BoldMT;writing-mode:lr-tb;fill:#000000;fill-opacity:1;fill-rule:nonzero;stroke:none"
             transform="translate(117,515.19385)"><tspan
               id="tspan214"
               y="0"
               x="0 8.658 16.587999 20.917 25.246 35.347 42.575001 47.632 54.860001 58.460999 67.119003 75.049004 82.978996 86.580002 94.510002 101.738 108.966 114.023 117.624 121.225 129.155 133.48399 140.71201 145.769">Software Engineer Intern</tspan></text>
<text
             id="text220"
             style="font-variant:normal;font-weight:normal;font-size:13px;font-family:Arial;-inkscape-font-specification:ArialMT;writing-mode:lr-tb;fill:#000000;fill-opacity:1;fill-rule:nonzero;stroke:none"
             transform="translate(117,532.19385)"><tspan
               id="tspan218"
               y="0"
               x="0">●</tspan></text>
<text
             id="text224"
             style="font-variant:normal;font-weight:normal;font-size:13px;font-family:Arial;-inkscape-font-specification:ArialMT;writing-mode:lr-tb;fill:#000000;fill-opacity:1;fill-rule:nonzero;stroke:none"
             transform="translate(131,532.19385)"><tspan
               id="tspan222"
               y="0"
               x="0 9.3859997 16.614 23.841999 26.728001 33.956001 40.456001 47.683998 54.911999 58.513 62.113998 69.342003 76.57 87.399002 90.285004 97.513 100.399 106.899 110.5 114.829 122.057 125.658 132.886 140.114 143.715 147.31599 154.54401 161.772 169 172.601 181.987 186.31599 193.54401 197.145 204.373 207.974 215.202 218.088 225.31599 232.54401 235.42999 242.658 249.158 252.759 256.35999 263.58801 267.91699 271.51801 280.90399 288.13199 295.35999 306.189 309.07501 316.30301 323.53101 327.13199 336.51801 343.746 346.63199 349.51801 352.40399 359.63199 363.961 371.189 374.07501 381.30301 387.80301">Deployed, administrated, and wrote plugins for Redmine/Chiliproject</tspan></text>
<text
             id="text228"
             style="font-variant:normal;font-weight:normal;font-size:13px;font-family:Arial;-inkscape-font-specification:ArialMT;writing-mode:lr-tb;fill:#000000;fill-opacity:1;fill-rule:nonzero;stroke:none"
             transform="translate(117,549.19385)"><tspan
               id="tspan226"
               y="0"
               x="0">●</tspan></text>
<text
             id="text232"
             style="font-variant:normal;font-weight:normal;font-size:13px;font-family:Arial;-inkscape-font-specification:ArialMT;writing-mode:lr-tb;fill:#000000;fill-opacity:1;fill-rule:nonzero;stroke:none"
             transform="translate(131,549.19385)"><tspan
               id="tspan230"
               y="0"
               x="0 8.658 15.886 23.114 26 32.5 39 46.228001 53.456001 57.056999 64.285004 71.513 78.740997 82.342003 89.57 96.797997 103.298 110.526 121.355 128.58299 135.811 139.412 146.64 153.868 157.46899 163.96899 171.19701 182.026 189.254 196.48199 200.811 203.69701 210.19701 217.425 224.653 231.153 234.754 241.98199 249.21001 252.811 262.19699 269.42499 276.65302 283.88101 287.48199 294.70999 297.59601 301.19699 304.798 308.39899 314.89899 321.39899 328.62701 332.228 335.82901 343.05701 350.285 357.513 361.11401 367.61401 370.5 377.728 384.95599 389.285 395.785 403.013 409.513">Analyzed and documented comparisons between git, svn, and clearcase</tspan></text>
<text
             id="text236"
             style="font-variant:normal;font-weight:normal;font-size:13px;font-family:Arial;-inkscape-font-specification:ArialMT;writing-mode:lr-tb;fill:#000000;fill-opacity:1;fill-rule:nonzero;stroke:none"
             transform="translate(117,566.19385)"><tspan
               id="tspan234"
               y="0"
               x="0">●</tspan></text>
<text
             id="text240"
             style="font-variant:normal;font-weight:normal;font-size:13px;font-family:Arial;-inkscape-font-specification:ArialMT;writing-mode:lr-tb;fill:#000000;fill-opacity:1;fill-rule:nonzero;stroke:none"
             transform="translate(131,566.19385)"><tspan
               id="tspan238"
               y="0"
               x="0 3.6010001 14.43 21.658001 24.544001 31.771999 42.601002 49.828999 57.056999 60.658001 67.886002 75.113998 78.714996 85.943001 89.543999 93.144997 100.373 107.601 111.202 118.43 122.759 129.987 133.588 140.81599 147.31599 151.645 158.873 165.373 171.873 175.474 186.30299 193.53101 196.41701 200.01801 202.90401 210.132 213.01801 220.246 223.847 230.347 237.575 244.80299 252.03101 259.259 266.487 272.987 280.215 286.715 290.31601 293.202 300.42999 304.03101 313.41699 317.01801 324.246 331.474 338.702 342.30301 348.80301 356.03101 362.53101">Implemented a feature across multiple codebases in C and Java</tspan></text>
<text
             id="text244"
             style="font-variant:normal;font-weight:bold;font-size:18.19999886px;font-family:Arial;-inkscape-font-specification:Arial-BoldMT;writing-mode:lr-tb;fill:#000000;fill-opacity:1;fill-rule:nonzero;stroke:none"
             transform="translate(3,605.0597)"><tspan
               id="tspan242"
               y="0"
               x="0 12.1212 23.223198 34.325199 44.444397 54.563599 60.624195 65.665596 76.767593">Education</tspan></text>
<text
             id="text248"
             style="font-variant:normal;font-weight:normal;font-size:13px;font-family:Arial;-inkscape-font-specification:ArialMT;writing-mode:lr-tb;fill:#000000;fill-opacity:1;fill-rule:nonzero;stroke:none"
             transform="translate(117,606.2451)"><tspan
               id="tspan246"
               y="0"
               x="0 7.2280002 14.456 21.684 28.912001 32.513 36.841999 40.443001 47.671001 54.898998 62.126999">2008 - 2015</tspan></text>
<text
             id="text252"
             style="font-variant:normal;font-weight:normal;font-size:13px;font-family:Arial;-inkscape-font-specification:ArialMT;writing-mode:lr-tb;fill:#000000;fill-opacity:1;fill-rule:nonzero;stroke:none"
             transform="translate(262,606.2451)"><tspan
               id="tspan250"
               y="0"
               x="0 10.101 14.43 21.658001 28.886 36.113998 43.341999 46.943001 55.601002 59.202 66.43 70.030998 77.259003 80.860001 90.246002 97.473999 100.36 106.86 114.088 118.417 124.917 127.803 131.40401">Oregon State University</tspan></text>
<text
             id="text256"
             style="font-variant:normal;font-weight:normal;font-size:13px;font-family:Arial;-inkscape-font-specification:ArialMT;writing-mode:lr-tb;fill:#000000;fill-opacity:1;fill-rule:nonzero;stroke:none"
             transform="translate(614.4346,606.2451)"><tspan
               id="tspan254"
               y="0"
               x="0 9.3859997 16.614 20.943001 27.443001 34.671001 37.556999 40.443001 43.328999 49.828999 53.43 57.030998 67.132004">Corvallis, OR</tspan></text>
<text
             id="text260"
             style="font-variant:normal;font-weight:bold;font-size:13px;font-family:Arial;-inkscape-font-specification:Arial-BoldMT;writing-mode:lr-tb;fill:#000000;fill-opacity:1;fill-rule:nonzero;stroke:none"
             transform="translate(117,622.19385)"><tspan
               id="tspan258"
               y="0"
               x="0 9.3859997 16.614 23.841999 31.771999 39 42.601002 50.530998 55.588001 59.188999 67.119003 71.447998 75.049004 83.707001 90.934998 94.536003 101.764 109.694 116.922 124.15 127.751 131.35201 139.282 142.883 152.269 160.19901 171.756 179.686 187.616 191.94501 199.173 204.23 207.83099 216.489 223.717 227.31799 234.54601 242.476 249.70399">Bachelor of Science in Computer Science</tspan></text>
<text
             id="text264"
             style="font-variant:normal;font-weight:normal;font-size:13px;font-family:Arial;-inkscape-font-specification:ArialMT;writing-mode:lr-tb;fill:#000000;fill-opacity:1;fill-rule:nonzero;stroke:none"
             transform="translate(117,657.2451)"><tspan
               id="tspan262"
               y="0"
               x="0 7.2280002 14.456 21.684 28.912001 32.513 36.841999 40.443001 47.671001 54.898998 62.126999">2006 - 2008</tspan></text>
<text
             id="text268"
             style="font-variant:normal;font-weight:normal;font-size:13px;font-family:Arial;-inkscape-font-specification:ArialMT;writing-mode:lr-tb;fill:#000000;fill-opacity:1;fill-rule:nonzero;stroke:none"
             transform="translate(262,657.2451)"><tspan
               id="tspan266"
               y="0"
               x="0 8.658 11.544 18.771999 26 29.601 40.43 47.658001 54.886002 62.113998 65.714996 72.943001 75.829002 83.056999 86.657997 96.043999 103.272 114.101 124.93 132.158 139.386 142.272 145.873 152.373 155.974 165.36 172.588 175.474 178.36 185.588 192.81599">Blue Mountain Community College</tspan></text>
<text
             id="text272"
             style="font-variant:normal;font-weight:normal;font-size:13px;font-family:Arial;-inkscape-font-specification:ArialMT;writing-mode:lr-tb;fill:#000000;fill-opacity:1;fill-rule:nonzero;stroke:none"
             transform="translate(605.7256,657.2451)"><tspan
               id="tspan270"
               y="0"
               x="0 8.658 15.886 23.114 30.341999 33.228001 40.456001 44.056999 51.285 58.513 62.113998 65.714996 75.816002">Pendleton, OR</tspan></text>
<text
             id="text276"
             style="font-variant:normal;font-weight:bold;font-size:13px;font-family:Arial;-inkscape-font-specification:Arial-BoldMT;writing-mode:lr-tb;fill:#000000;fill-opacity:1;fill-rule:nonzero;stroke:none"
             transform="translate(117,673.19385)"><tspan
               id="tspan274"
               y="0"
               x="0 9.3859997 16.614 23.841999 31.771999 39 42.601002 49.828999 54.158001 61.386002 64.987 72.917 77.246002 80.847 90.233002 95.290001 99.619003 106.847 110.448 120.549 125.606 132.834 140.76401 148.694 156.62399 160.22501 168.155 173.21201 180.44 188.37 195.59801 199.927 207.155 212.21201 215.813 225.19901 232.427 240.35699 245.414 252.642 259.87 263.47101 273.57199 277.173 281.50201 289.43201 293.03299 302.41901 310.349 318.27899 326.20901 331.26599">Associate of Arts Oregon Transfer Degree with Honors</tspan></text>
<text
             id="text280"
             style="font-variant:normal;font-weight:bold;font-size:18.19999886px;font-family:Arial;-inkscape-font-specification:Arial-BoldMT;writing-mode:lr-tb;fill:#000000;fill-opacity:1;fill-rule:nonzero;stroke:none"
             transform="translate(3,711.0597)"><tspan
               id="tspan278"
               y="0"
               x="0 5.0414 16.143398 22.203999 32.323196 39.402996 49.522198 59.641396 65.701996">Interests</tspan></text>
<text
             id="text284"
             style="font-variant:normal;font-weight:normal;font-size:13px;font-family:Arial;-inkscape-font-specification:ArialMT;writing-mode:lr-tb;fill:#000000;fill-opacity:1;fill-rule:nonzero;stroke:none"
             transform="translate(117,706.19385)"><tspan
               id="tspan282"
               y="0"
               x="0">●</tspan></text>
<text
             id="text288"
             style="font-variant:normal;font-weight:normal;font-size:13px;font-family:Arial;-inkscape-font-specification:ArialMT;writing-mode:lr-tb;fill:#000000;fill-opacity:1;fill-rule:nonzero;stroke:none"
             transform="translate(131,706.19385)"><tspan
               id="tspan286"
               y="0"
               x="0 3.6010001 7.2020001 14.43 21.658001 24.544001 31.771999 38.271999 41.873001 51.258999 58.487 62.816002 69.316002 72.202003 79.43 86.657997 90.259003 99.644997 102.531 106.132 113.36 116.961 119.847 127.075 131.40401 138.632 145.86 149.461 155.961 162.461 169.689 172.575 179.80299 183.40401 189.90401 196.40401 202.90401 206.505 213.733 224.562 231.062 234.66299 238.26401 245.492 252.72 259.22 266.448 273.67599 280.17599 287.40399 291.005 298.233 301.83401 305.435 312.66299 319.89099 329.27701 332.87799 342.26401 349.492 353.82101 360.32101 363.207 370.435 377.66299 381.26401 388.492 392.09299 395.694 402.194 408.694 415.922 418.80801 426.03601 429.63699 436.13699 443.36499 450.59299 454.194 461.422 468.64999 475.87799 483.10599 485.992 493.22 496.82101 504.04901 508.37799 511.26401 518.492 525.71997 529.32098 536.54901 543.77698 547.37799">I enjoy working with large scale systems, because of how working at scale can handle bring out </tspan></text>
<text
             id="text292"
             style="font-variant:normal;font-weight:normal;font-size:13px;font-family:Arial;-inkscape-font-specification:ArialMT;writing-mode:lr-tb;fill:#000000;fill-opacity:1;fill-rule:nonzero;stroke:none"
             transform="translate(131,721.1426)"><tspan
               id="tspan290"
               y="0"
               x="0 7.2280002 14.456 21.684 28.912001 33.241001 36.841999 44.07 51.298 54.183998 57.785 60.671001 67.899002 74.399002 78 81.600998 88.829002 93.157997 96.759003 103.259 107.588 114.816 122.044 125.645 128.53101 135.03101 142.259 145.86 153.088 160.31599 167.54401 171.145 174.746 181.974 189.202 196.42999 203.658 210.886 214.487 218.088 225.31599 228.202 231.80299 239.03101 246.259 252.759 255.645 262.87299 270.10101 276.60101 280.202 283.80301 291.03101 294.63199 304.01801 311.246 315.57501 322.07501 325.67599 332.90399 337.233 344.461 351.689 358.91699 366.14499 369.746 376.974 379.85999 383.461 387.06201 389.948 396.448 403.67599 406.56201 410.16299 413.76401 416.64999 419.53601 430.36499 433.25101 436.85199 444.07999 447.681 450.56699 457.79501 465.02301 471.52301">opportunities for creative and thoughtful designs to work around difficult limitations.</tspan></text>
<text
             id="text296"
             style="font-variant:normal;font-weight:normal;font-size:13px;font-family:Arial;-inkscape-font-specification:ArialMT;writing-mode:lr-tb;fill:#000000;fill-opacity:1;fill-rule:nonzero;stroke:none"
             transform="translate(117,737.19385)"><tspan
               id="tspan294"
               y="0"
               x="0">●</tspan></text>
<text
             id="text300"
             style="font-variant:normal;font-weight:normal;font-size:13px;font-family:Arial;-inkscape-font-specification:ArialMT;writing-mode:lr-tb;fill:#000000;fill-opacity:1;fill-rule:nonzero;stroke:none"
             transform="translate(131,737.19385)"><tspan
               id="tspan298"
               y="0"
               x="0 12.259 19.487 23.816 30.316 33.202 40.43 47.658001 51.258999 60.645 63.530998 67.132004 74.360001 77.960999 85.189003 88.790001 92.390999 99.619003 106.847 117.676 121.277 124.878 132.106 135.707 139.308 146.536 153.036 160.26401 163.86501 171.093 174.694 181.922 186.25101 193.479 196.36501 203.593 210.093 213.694 217.295 220.896 225.22501 232.453 243.282 246.883 250.48399 257.71201 264.94 271.44 275.04099 277.927 285.155 292.383 299.61099 302.49701 306.09799 313.32599 320.55399 324.155 331.383 334.98401 337.87 345.09799 352.32599 355.927 363.155 370.383 373.98401 377.58499 384.81299 388.414 395.642 402.87 410.09799 417.32599 420.21201 423.09799 430.32599 437.55399 441.155 444.75601 451.98401 459.21201 465.71201 469.31299 476.54099 480.142 483.74301 487.34399 494.57199 501.79999 509.02802 515.52802 522.75598 529.98401 537.21198 543.71198 547.31299 554.54102 558.14203">Working with a team to take a project from functional on a laptop to handling tens of thousands of </tspan></text>
<text
             id="text304"
             style="font-variant:normal;font-weight:normal;font-size:13px;font-family:Arial;-inkscape-font-specification:ArialMT;writing-mode:lr-tb;fill:#000000;fill-opacity:1;fill-rule:nonzero;stroke:none"
             transform="translate(131,752.1426)"><tspan
               id="tspan302"
               y="0"
               x="0 4.329 11.557 18.785 26.013 33.241001 39.741001 43.341999 49.841999 53.443001 60.671001 67.899002 72.227997 75.829002 82.329002 89.556999 96.056999 103.285 110.513 117.741 121.342 124.943 133.601 137.92999 144.42999 151.658 154.54401 158.145 165.373 171.873 175.474 178.36 185.588 192.81599 196.41701 200.01801 207.246 211.575 215.17599 221.67599 228.17599 235.40401 238.28999 245.51801 249.119 252.72 259.948 267.17599 274.40399 278.005 285.233 288.11899 291.005 294.60599 298.207 305.435 312.66299 316.26401 319.86499 324.194 331.422 338.64999 345.87799 348.76401 355.992 362.492 369.72 376.948 384.17599 387.77701 390.66299 397.89099 405.11899 408.72 415.948 418.83401 426.06201 433.29001 440.51801 444.11899 447.72 454.948 462.17599 465.77701 475.16299 482.39099 488.89099">requests per second. Architecting for scale, and all the troubleshooting along the way.</tspan></text>
<text
             id="text308"
             style="font-variant:normal;font-weight:normal;font-size:13px;font-family:Arial;-inkscape-font-specification:ArialMT;writing-mode:lr-tb;fill:#000000;fill-opacity:1;fill-rule:nonzero;stroke:none"
             transform="translate(117,768.19385)"><tspan
               id="tspan306"
               y="0"
               x="0">●</tspan></text>
<text
             id="text312"
             style="font-variant:normal;font-weight:normal;font-size:13px;font-family:Arial;-inkscape-font-specification:ArialMT;writing-mode:lr-tb;fill:#000000;fill-opacity:1;fill-rule:nonzero;stroke:none"
             transform="translate(131,768.19385)"><tspan
               id="tspan310"
               y="0"
               x="0 10.101 17.329 20.93 27.43 30.316 37.543999 44.771999 48.373001 55.601002 59.202 62.803001 72.189003 79.417 83.746002 90.246002 93.847 97.447998 101.049 108.277 115.505 118.391 125.619 132.119 135.72 142.22 145.106 152.334 159.562 166.78999 170.39101 177.619 184.847 195.67599 202.90401 209.40401 213.005 216.606 223.106 229.606 232.492 236.821 240.422 243.308 246.909 254.13699 261.36499 268.59299 272.194 275.79501 283.02301 290.25101 293.85199 301.07999 307.57999 314.07999 317.681 321.28201 324.168 330.668 334.26901 337.155 344.383 351.61099 355.21201 358.81299 365.31299 372.54099 379.04099 386.26901 392.76901 395.655 402.883 410.11099 413.71201 420.94 428.168 435.396 438.99701 441.883 449.11099 456.33899 463.56699 470.79501 475.12399 478.72501 483.05399 490.28201 496.78201 503.28201 507.61099 514.11102 516.99701 519.883 530.71198 537.94 540.82599 548.05402 555.28198">Outside of work I enjoy video games, sci-fi and fantasy fiction, kayaking and indoor rock-climbing.</tspan></text>
</g></g></g></g></svg>